<svg width="37" height="42" viewBox="0 0 37 42" fill="none" xmlns="http://www.w3.org/2000/svg">
<path d="M17 19V17C17 16.2044 17.3161 15.4413 17.8787 14.8787C18.4413 14.3161 19.2044 14 20 14C20.7956 14 21.5587 14.3161 22.1213 14.8787C22.6839 15.4413 23 16.2044 23 17V20" stroke="#05020C" stroke-width="2.5" stroke-linecap="round" stroke-linejoin="round"/>
<path d="M29.0004 20V7C29.0004 6.20435 29.3164 5.44129 29.879 4.87868C30.4417 4.31607 31.2047 4 32.0004 4C32.796 4 33.5591 4.31607 34.1217 4.87868C34.6843 5.44129 35.0004 6.20435 35.0004 7V28C35.0004 31.1826 33.7361 34.2348 31.4856 36.4853C29.2352 38.7357 26.183 40 23.0004 40H19.0004H19.4164C17.429 40.0003 15.4727 39.5071 13.7231 38.5646C11.9735 37.622 10.4854 36.2597 9.39237 34.6C9.26119 34.4003 9.13052 34.2003 9.00037 34C8.37637 33.042 6.18637 29.224 2.42837 22.544C2.04527 21.8631 1.94293 21.0595 2.14313 20.3043C2.34333 19.5491 2.83026 18.9018 3.50037 18.5C4.21412 18.0717 5.05051 17.8942 5.87669 17.9957C6.70286 18.0972 7.47145 18.4718 8.06037 19.06L11.0004 22" stroke="#05020C" stroke-width="2.5" stroke-linecap="round" stroke-linejoin="round"/>
<path d="M23 17C23 16.2044 23.3161 15.4413 23.8787 14.8787C24.4413 14.3161 25.2044 14 26 14C26.7956 14 27.5587 14.3161 28.1213 14.8787C28.6839 15.4413 29 16.2044 29 17V20M11 22V5C11 4.20435 11.3161 3.44129 11.8787 2.87868C12.4413 2.31607 13.2044 2 14 2C14.7956 2 15.5587 2.31607 16.1213 2.87868C16.6839 3.44129 17 4.20435 17 5V20" stroke="#05020C" stroke-width="2.5" stroke-linecap="round" stroke-linejoin="round"/>
</svg>
