<svg width="238" height="24" viewBox="0 0 238 24" fill="none" xmlns="http://www.w3.org/2000/svg">
<path d="M46.8945 22.9729C46.4893 22.274 46.2293 21.6232 46.1144 21.0206C45.9995 20.4181 45.9632 19.5143 46.0086 18.3182V11.8287C46.0086 10.1536 45.8997 8.9816 45.682 8.31577C45.4613 7.64995 44.9926 7.05342 44.273 6.52016C42.6131 5.29999 39.7588 4.69141 35.7162 4.69141C33.255 4.69141 31.2504 5.04089 29.6992 5.73684C28.0695 6.46593 27.2562 7.17393 27.2562 7.86084C27.2562 8.08982 27.3469 8.29167 27.5343 8.4634C27.7218 8.63814 27.9395 8.72551 28.1935 8.72551C28.5321 8.72551 28.9464 8.44231 29.4392 7.87591C30.6547 6.48099 32.3812 5.78504 34.6126 5.78504C36.0579 5.78504 36.9801 6.09235 37.3732 6.70093C37.5364 6.95099 37.6362 7.23419 37.6695 7.55053C37.6997 7.86687 37.7239 8.71647 37.736 10.0993V12.0938C36.8077 11.6479 35.9793 11.3406 35.2566 11.1719C34.534 11.0032 33.7025 10.9158 32.7591 10.9158C30.4612 10.9158 28.5352 11.5545 26.984 12.8289C25.6476 13.9075 24.9824 15.3235 24.9824 17.0769C24.9824 19.0593 25.8048 20.6681 27.4557 21.9124C28.7256 22.8614 30.1709 23.3314 31.8007 23.3314C32.7622 23.3314 33.7358 23.1597 34.7245 22.8102C35.7132 22.4607 36.711 21.9456 37.7178 21.2586V22.9729H46.8945ZM37.6967 19.9481C37.1857 20.4392 36.6203 20.8308 36.0004 21.1321C35.3836 21.4334 34.8212 21.581 34.3193 21.581C33.6874 21.581 33.3125 21.331 33.2066 20.8308C33.1613 20.644 33.1341 20.1228 33.125 19.2642V15.3596C33.125 14.0521 33.1794 13.2627 33.2883 12.9916C33.4848 12.4915 33.9021 12.2414 34.534 12.2414C35.2869 12.2414 36.3542 12.5849 37.7299 13.2718L37.6967 19.9481Z" fill="#FCAC10"/>
<path d="M63.125 22.9729H71.4551L71.4067 19.1648L71.4369 11.6027C71.4369 9.81613 71.2978 8.52968 71.0197 7.74033C70.7415 6.95099 70.1973 6.28818 69.39 5.75492C68.3166 5.04692 67.0043 4.69141 65.4532 4.69141C64.2952 4.69141 63.1039 4.91736 61.8793 5.36928C60.6548 5.8212 59.403 6.49907 58.127 7.4029V5.13127H49.7305L49.7788 8.67731L49.8272 12.3378L49.7788 16.5678L49.7305 22.9729H58.1059L58.0907 22.2709L58.0424 17.4686L58.0756 13.9557L58.1059 9.36422L58.124 8.69237C58.8436 8.08379 59.5149 7.62585 60.1407 7.32156C60.7636 7.01727 61.3411 6.86362 61.8793 6.86362C62.4598 6.86362 62.8348 7.03836 63.0101 7.38784C63.0978 7.56258 63.1492 7.76142 63.1643 7.98437C63.1795 8.20731 63.1946 8.90025 63.2037 10.0662L63.2218 15.0975L63.1795 18.4297L63.125 22.9729Z" fill="#FCAC10"/>
<path d="M96.2581 8.66069L96.2884 0.673828H87.8948L87.9614 6.847C87.1299 6.12996 86.2681 5.59067 85.3762 5.22914C84.4842 4.86761 83.565 4.68985 82.6156 4.68985C80.4749 4.68985 78.5428 5.46715 76.8284 7.02475C74.8933 8.77819 73.9258 11.0589 73.9258 13.8698C73.9258 16.7681 74.9266 19.1572 76.9282 21.0402C78.5458 22.5646 80.3933 23.3269 82.4675 23.3269C83.5257 23.3269 84.4782 23.1371 85.3127 22.7575C86.1502 22.3778 87.015 21.7391 87.913 20.8474V22.9714H96.2884V22.2362L96.24 14.3126L96.2581 8.66069ZM87.9644 19.3259C86.9998 20.3382 86.2167 21.0492 85.6029 21.4589C84.9892 21.8687 84.4116 22.0705 83.8644 22.0705C83.3625 22.0705 83.045 21.8386 82.9119 21.3686C82.8454 21.1516 82.8091 20.6003 82.797 19.7206V8.74203L82.7819 8.02499C82.7819 7.19648 82.8545 6.63309 83.0026 6.33483C83.1508 6.03355 83.432 5.88592 83.8492 5.88592C84.3723 5.88592 84.9771 6.07573 85.6574 6.45835C86.3407 6.83796 87.1087 7.41641 87.9644 8.1907V19.3259Z" fill="#FCAC10"/>
<path d="M118.866 4.93845C118.694 4.77576 118.494 4.69141 118.277 4.69141C118.114 4.69141 117.987 4.73961 117.899 4.83903C117.814 4.93846 117.596 5.27588 117.246 5.85434C116.266 7.5445 114.706 10.021 112.559 13.2718C111.682 12.1299 110.821 10.8435 109.968 9.41543C109.115 7.98738 108.359 6.56234 107.706 5.13127H97.293C98.6929 6.99618 101.475 11.1478 105.638 17.5951L107.573 20.6169C107.047 21.3038 106.563 21.7949 106.122 22.0962C105.68 22.3945 105.212 22.5451 104.722 22.5451C104.471 22.5451 104.169 22.4638 103.821 22.2981C103.286 22.051 102.926 21.9215 102.738 21.9215C102.488 21.9215 102.273 22.0028 102.097 22.1685C101.922 22.3342 101.837 22.53 101.837 22.756C101.837 23.1175 102.031 23.4128 102.418 23.6478C102.805 23.8828 103.304 24.0003 103.903 24.0003C104.516 24.0003 105.154 23.8526 105.817 23.5604C106.479 23.2682 107.05 22.8886 107.531 22.4186C108.175 21.7527 108.997 20.6712 109.989 19.1678L112.874 14.7721C115.286 11.1116 117.282 8.21334 118.854 6.08029C119.039 5.85132 119.132 5.65549 119.132 5.4928C119.129 5.28492 119.042 5.10114 118.866 4.93845Z" fill="#FCAC10"/>
<path d="M23.4954 16.1605C23.2565 16.1605 23.0297 16.3563 22.8211 16.748C22.4583 17.4199 21.9805 18.1128 21.3788 18.8208C20.7802 19.5288 20.2027 20.0952 19.6403 20.52C18.7725 21.1768 17.7747 21.692 16.6469 22.0716C15.5191 22.4542 14.4125 22.644 13.3391 22.644C12.9672 22.644 12.4955 22.6048 11.924 22.5295V22.4813L11.8333 13.2652L11.8273 12.6808L11.9271 1.1328V1.11171C12.2899 1.03639 12.6739 0.997227 13.079 0.997227C14.7995 0.997227 16.4352 1.37382 17.9833 2.13003C19.5314 2.88925 20.7771 3.91359 21.7205 5.20908C22.0289 5.63388 22.292 5.84779 22.5097 5.84779C22.6397 5.84779 22.7606 5.79959 22.8725 5.70017C22.9814 5.60074 23.0358 5.4953 23.0358 5.37479C23.0358 4.9289 22.4885 4.19679 21.3879 3.1845C19.0809 1.06049 16.3445 0 13.1788 0C11.3314 0 9.61097 0.382621 8.02055 1.14184C5.83448 2.21137 4.14126 3.7509 2.94089 5.76645C1.81913 7.66148 1.25977 9.67703 1.25977 11.8101C1.25977 13.9009 1.79797 15.8773 2.8774 17.7392C4.1715 19.9837 6.06428 21.6227 8.54666 22.656C10.0978 23.3098 11.6398 23.6352 13.1818 23.6352C14.2371 23.6352 15.3347 23.4755 16.4776 23.1622C18.3794 22.641 20.0333 21.71 21.4393 20.3694C22.0894 19.7487 22.685 19.0467 23.2293 18.2695C23.7735 17.4922 24.0457 16.9378 24.0457 16.6124C24.0396 16.3111 23.8612 16.1605 23.4954 16.1605Z" fill="#FCAC10"/>
<path d="M11.9249 22.4838L11.8282 12.6832L11.9249 1.13828V1.11719C6.50964 1.72878 2.30078 6.27807 2.30078 11.8155C2.30078 17.35 6.50964 21.9083 11.9249 22.5229V22.4838Z" fill="#E5007E"/>
<path d="M139.622 11.2559C140.142 10.4003 140.402 9.44525 140.402 8.38776C140.402 7.20977 140.088 6.14927 139.459 5.19724C139.054 4.58866 138.488 4.02828 137.763 3.52213C137.034 3.01298 136.251 2.62433 135.416 2.3592C134.627 2.11517 133.865 1.96152 133.121 1.89524C132.378 1.83197 131.017 1.79883 129.043 1.79883H121.133L121.163 6.59215L121.22 12.7081L121.178 18.3239L121.148 21.177L121.136 21.8669H128.438C130.594 21.8669 132.266 21.8368 133.454 21.7765C135.607 21.6801 137.221 21.0414 138.295 19.8664C139.172 18.9144 139.607 17.878 139.607 16.7512C139.607 16.0553 139.432 15.4045 139.081 14.802C138.733 14.1994 138.204 13.642 137.497 13.1329C138.392 12.7352 139.102 12.1085 139.622 11.2559ZM135.462 12.5936C134.663 12.5936 133.926 12.4219 133.248 12.0784C133.043 11.979 132.876 11.9308 132.762 11.9308C132.604 11.9308 132.526 12.0423 132.526 12.2682C132.526 12.681 132.765 13.0124 133.239 13.2685C133.717 13.5245 134.343 13.6511 135.12 13.6511C135.483 13.6511 135.879 13.6059 136.302 13.5185C137.079 13.9493 137.663 14.4314 138.05 14.9646C138.437 15.4979 138.633 16.0854 138.633 16.7211C138.633 17.9774 138.071 19.0168 136.949 19.8393C136.408 20.231 135.731 20.5082 134.914 20.6678C134.098 20.8275 132.958 20.9119 131.492 20.9119L130.161 20.8968L130.074 11.5903L130.161 2.76894H130.975C132.598 2.76894 133.947 2.93163 135.023 3.254C136.1 3.57938 137.025 4.10059 137.805 4.82667C138.896 5.82691 139.441 7.029 139.441 8.42994C139.441 9.35185 139.205 10.1683 138.733 10.8854C137.998 12.0272 136.907 12.5936 135.462 12.5936Z" fill="#FCAC10"/>
<path d="M156.955 5.86226C156.595 5.62425 156.141 5.50977 155.591 5.50977C154.69 5.50977 153.726 5.86828 152.707 6.58231C152.265 6.89564 151.479 7.64883 150.348 8.84491V5.81707H142.783L142.801 6.66968L142.871 12.6681L142.816 18.067L142.801 21.0647L142.783 21.8751H150.366L150.309 16.0243L150.339 10.3784C151.156 9.26067 151.887 8.46228 152.549 7.98325C153.206 7.50121 153.889 7.2632 154.593 7.2632C154.878 7.2632 155.234 7.36564 155.67 7.5705C155.927 7.688 156.154 7.74826 156.362 7.74826C156.689 7.74826 156.958 7.65486 157.173 7.46807C157.387 7.28128 157.496 7.04628 157.496 6.76007C157.49 6.39251 157.315 6.09424 156.955 5.86226Z" fill="#FCAC10"/>
<path d="M176.746 21.8727C176.383 21.243 176.15 20.6615 176.044 20.1132C175.941 19.5709 175.908 18.7605 175.947 17.6819V11.8432C175.947 10.3368 175.848 9.2823 175.654 8.68276C175.458 8.08623 175.034 7.54694 174.384 7.0649C172.891 5.96825 170.321 5.41992 166.683 5.41992C164.47 5.41992 162.665 5.73626 161.268 6.36292C159.801 7.01971 159.067 7.6554 159.067 8.27302C159.067 8.47789 159.151 8.66167 159.318 8.81833C159.487 8.975 159.684 9.05333 159.91 9.05333C160.216 9.05333 160.591 8.79724 161.032 8.28808C162.127 7.03176 163.678 6.40811 165.688 6.40811C166.989 6.40811 167.814 6.68227 168.168 7.2306C168.316 7.45656 168.407 7.71264 168.434 7.99283C168.464 8.27904 168.482 9.04128 168.491 10.2886V12.0812C167.654 11.6775 166.91 11.4003 166.263 11.2496C165.613 11.099 164.863 11.0207 164.016 11.0207C161.948 11.0207 160.216 11.5961 158.816 12.741C157.615 13.7111 157.014 14.9855 157.014 16.5642C157.014 18.3507 157.757 19.7999 159.242 20.9176C160.385 21.7702 161.688 22.195 163.152 22.195C164.019 22.195 164.896 22.0384 165.785 21.7251C166.677 21.4117 167.575 20.9478 168.479 20.3301V21.8727H176.746ZM168.467 19.1521C168.004 19.592 167.493 19.9475 166.94 20.2157C166.384 20.4868 165.882 20.6194 165.428 20.6194C164.857 20.6194 164.524 20.3934 164.425 19.9445C164.385 19.7758 164.361 19.3058 164.349 18.5315V15.0186C164.349 13.8406 164.397 13.1326 164.497 12.8856C164.675 12.4367 165.05 12.2107 165.619 12.2107C166.296 12.2107 167.255 12.518 168.494 13.1356L168.467 19.1521Z" fill="#FCAC10"/>
<path d="M191.354 21.8737H198.849L198.804 18.4482L198.834 11.6393C198.834 10.0335 198.707 8.87362 198.459 8.16261C198.208 7.45159 197.719 6.85506 196.99 6.37603C196.025 5.73732 194.843 5.41797 193.446 5.41797C192.403 5.41797 191.333 5.62284 190.229 6.02956C189.129 6.43629 188.001 7.04788 186.852 7.85831V5.81565H179.299L179.344 9.00618L179.39 12.2991L179.344 16.1073L179.299 21.8707H186.84L186.825 21.238L186.782 16.9177L186.812 13.7573L186.843 9.62681L186.855 9.02426C187.505 8.47292 188.11 8.06318 188.672 7.78601C189.234 7.51185 189.754 7.37326 190.235 7.37326C190.758 7.37326 191.097 7.53294 191.254 7.84626C191.333 8.00293 191.381 8.18068 191.393 8.38254C191.408 8.58439 191.42 9.20804 191.433 10.2565L191.445 14.7847L191.408 17.7854L191.354 21.8737Z" fill="#FCAC10"/>
<path d="M221.177 8.98926L221.207 1.80078H213.654L213.712 7.35935C212.965 6.7116 212.191 6.22654 211.389 5.90418C210.588 5.58181 209.76 5.41912 208.904 5.41912C206.975 5.41912 205.239 6.1211 203.694 7.52204C201.953 9.10073 201.082 11.1554 201.082 13.6832C201.082 16.2922 201.983 18.4403 203.782 20.1365C205.236 21.5103 206.899 22.1942 208.771 22.1942C209.723 22.1942 210.579 22.0255 211.329 21.6791C212.082 21.3356 212.859 20.7632 213.669 19.9588V21.8719H221.207V21.2091L221.162 14.0778L221.177 8.98926ZM213.709 18.591C212.844 19.5038 212.136 20.1425 211.586 20.5101C211.033 20.8777 210.513 21.0614 210.02 21.0614C209.569 21.0614 209.282 20.8505 209.164 20.4318C209.107 20.2359 209.07 19.7418 209.061 18.9465V9.06458L209.046 8.41683C209.046 7.67268 209.113 7.16352 209.246 6.89538C209.379 6.62423 209.633 6.49167 210.008 6.49167C210.479 6.49167 211.024 6.6634 211.637 7.00685C212.251 7.35031 212.941 7.87152 213.709 8.56747V18.591Z" fill="#FCAC10"/>
<path d="M235.961 14.6971C235.655 14.2151 235.338 13.7903 235.008 13.4258C234.679 13.0582 233.905 12.2809 232.683 11.0939C231.434 9.87972 230.606 9.01505 230.198 8.50891C229.789 7.99975 229.584 7.57495 229.584 7.24354C229.584 6.96034 229.693 6.74945 229.916 6.61387C230.14 6.47529 230.464 6.40901 230.896 6.40901C232.127 6.40901 233.264 6.77958 234.304 7.52674C234.815 7.88828 235.165 8.06904 235.353 8.06904C235.51 8.06904 235.649 8.0118 235.773 7.89129C235.897 7.77379 235.961 7.64424 235.961 7.49662C235.961 7.02663 235.434 6.58977 234.379 6.18907C233.034 5.67991 231.752 5.42383 230.542 5.42383C228.9 5.42383 227.443 5.8185 226.176 6.60182C225.408 7.07182 224.813 7.64424 224.383 8.31609C223.957 8.98794 223.742 9.68991 223.742 10.425C223.742 11.2686 224.054 12.1483 224.679 13.0642C225.302 13.9801 226.672 15.5648 228.789 17.8214C229.656 18.7523 230.213 19.382 230.464 19.7134C230.715 20.0448 230.842 20.328 230.842 20.566C230.842 20.804 230.751 20.9818 230.566 21.1053C230.385 21.2288 230.113 21.2921 229.75 21.2921C228.961 21.2921 228.114 21.1264 227.21 20.795C226.306 20.4636 225.608 20.0689 225.115 19.6019C224.81 19.3067 224.559 19.1591 224.362 19.1591C223.978 19.1681 223.785 19.3549 223.785 19.7194C223.785 19.9153 223.866 20.096 224.029 20.2617C224.19 20.4274 224.495 20.6444 224.936 20.9095C226.439 21.7741 228.166 22.202 230.116 22.202C231.867 22.202 233.342 21.8163 234.542 21.042C236.006 20.1111 236.741 18.8909 236.741 17.3815C236.741 16.4114 236.481 15.5226 235.961 14.6971Z" fill="#FCAC10"/>
<path d="M130.168 2.77233C129.805 2.76932 129.455 2.77534 129.034 2.77534H121.137L121.167 6.59554L121.224 12.7115L121.182 18.3273L121.152 20.2856V20.9183L128.445 20.9122C128.753 20.9122 130.168 20.9002 130.168 20.9002V20.0054L130.081 11.5937L130.168 2.77233Z" fill="#E5007E"/>
</svg>
