<svg width="197" height="38" viewBox="0 0 197 38" fill="none" xmlns="http://www.w3.org/2000/svg">
<path d="M38.1015 19.1621C37.7632 18.5791 37.5461 18.0362 37.4502 17.5336C37.3543 17.031 37.324 16.2771 37.3618 15.2794V9.86628C37.3618 8.46902 37.271 7.49144 37.0892 6.93605C36.9049 6.38067 36.5136 5.88308 35.9128 5.43827C34.5269 4.42048 32.1438 3.91284 28.7685 3.91284C26.7136 3.91284 25.0399 4.20436 23.7448 4.78487C22.3841 5.39303 21.705 5.9836 21.705 6.55658C21.705 6.74757 21.7808 6.91595 21.9373 7.05919C22.0938 7.20495 22.2756 7.27783 22.4876 7.27783C22.7704 7.27783 23.1162 7.0416 23.5277 6.56915C24.5426 5.4056 25.984 4.82508 27.8471 4.82508C29.0538 4.82508 29.8238 5.08142 30.1519 5.58905C30.2883 5.79764 30.3716 6.03387 30.3993 6.29774C30.4246 6.56161 30.4448 7.27029 30.4549 8.42379V10.0874C29.6799 9.7155 28.9882 9.45917 28.3848 9.31843C27.7815 9.1777 27.0872 9.10482 26.2996 9.10482C24.381 9.10482 22.7729 9.63759 21.4778 10.7006C20.362 11.6003 19.8066 12.7814 19.8066 14.244C19.8066 15.8976 20.4933 17.2396 21.8717 18.2775C22.9319 19.0691 24.1386 19.4611 25.4993 19.4611C26.3021 19.4611 27.115 19.3179 27.9405 19.0264C28.766 18.7349 29.5991 18.3051 30.4397 17.7322V19.1621H38.1015ZM30.4221 16.639C29.9954 17.0486 29.5233 17.3753 29.0058 17.6266C28.4908 17.8779 28.0213 18.0011 27.6022 18.0011C27.0746 18.0011 26.7616 17.7925 26.6732 17.3753C26.6353 17.2195 26.6126 16.7847 26.6051 16.0685V12.8116C26.6051 11.7209 26.6505 11.0625 26.7414 10.8363C26.9055 10.4192 27.2538 10.2106 27.7815 10.2106C28.4101 10.2106 29.3012 10.4971 30.4498 11.07L30.4221 16.639Z" fill="#FCAC10"/>
<path d="M51.6532 19.1621H58.6081L58.5677 15.9856L58.5929 9.6778C58.5929 8.18756 58.4768 7.11448 58.2446 6.45606C58.0123 5.79764 57.5579 5.24477 56.8839 4.79995C55.9877 4.20938 54.8921 3.91284 53.597 3.91284C52.6301 3.91284 51.6355 4.10132 50.6131 4.47828C49.5907 4.85524 48.5455 5.42068 47.4802 6.1746V4.27975H40.4697L40.5101 7.23762L40.5505 10.291L40.5101 13.8193L40.4697 19.1621H47.4625L47.4499 18.5765L47.4095 14.5707L47.4373 11.6405L47.4625 7.8106L47.4777 7.25019C48.0785 6.74255 48.6389 6.36056 49.1615 6.10674C49.6815 5.85292 50.1637 5.72476 50.6131 5.72476C51.0978 5.72476 51.4108 5.87052 51.5572 6.16203C51.6304 6.30779 51.6733 6.47365 51.686 6.65962C51.6986 6.84558 51.7112 7.42359 51.7188 8.39614L51.7339 12.593L51.6986 15.3724L51.6532 19.1621Z" fill="#FCAC10"/>
<path d="M79.3167 7.22511L79.3419 0.562988H72.334L72.3895 5.71225C71.6953 5.11414 70.9758 4.6643 70.2311 4.36274C69.4864 4.06117 68.7189 3.9129 67.9262 3.9129C66.1389 3.9129 64.5258 4.56127 63.0944 5.86052C61.4787 7.32312 60.6709 9.22551 60.6709 11.5702C60.6709 13.9878 61.5065 15.9806 63.1777 17.5513C64.5283 18.8229 66.0708 19.4587 67.8025 19.4587C68.6861 19.4587 69.4813 19.3004 70.1781 18.9837C70.8773 18.6671 71.5993 18.1343 72.3491 17.3904V19.1621H79.3419V18.549L79.3015 11.9396L79.3167 7.22511ZM72.392 16.1213C71.5867 16.9657 70.9329 17.5588 70.4204 17.9006C69.908 18.2424 69.4258 18.4107 68.9688 18.4107C68.5498 18.4107 68.2847 18.2172 68.1736 17.8252C68.1181 17.6443 68.0878 17.1844 68.0777 16.4506V7.29296L68.0651 6.69485C68.0651 6.00376 68.1257 5.53382 68.2494 5.28503C68.3731 5.03372 68.6078 4.91058 68.9562 4.91058C69.393 4.91058 69.8979 5.06891 70.4659 5.38806C71.0364 5.70471 71.6776 6.18722 72.392 6.83307V16.1213Z" fill="#FCAC10"/>
<path d="M98.1918 4.11891C98.0479 3.98321 97.8813 3.91284 97.6996 3.91284C97.5632 3.91284 97.4572 3.95305 97.384 4.03598C97.3133 4.11891 97.1315 4.40038 96.8387 4.88288C96.0208 6.29271 94.7181 8.35845 92.9258 11.07C92.1937 10.1176 91.4742 9.04451 90.7623 7.85332C90.0504 6.66213 89.4193 5.47345 88.874 4.27975H80.1797C81.3485 5.83533 83.671 9.29833 87.1472 14.6763L88.7629 17.1969C88.3236 17.7699 87.9197 18.1795 87.5512 18.4308C87.1826 18.6796 86.7913 18.8052 86.3823 18.8052C86.1728 18.8052 85.9203 18.7374 85.63 18.5992C85.1832 18.3931 84.8828 18.285 84.7263 18.285C84.5167 18.285 84.3375 18.3529 84.1911 18.4911C84.0447 18.6293 83.974 18.7927 83.974 18.9811C83.974 19.2827 84.1355 19.529 84.4587 19.725C84.7818 19.921 85.1983 20.019 85.6982 20.019C86.2107 20.019 86.7433 19.8959 87.2962 19.6521C87.849 19.4084 88.3262 19.0917 88.7276 18.6997C89.2653 18.1443 89.9519 17.2421 90.78 15.9881L93.1883 12.3215C95.2028 9.26817 96.869 6.85061 98.1817 5.07136C98.3357 4.88037 98.414 4.71702 98.414 4.58132C98.4114 4.40792 98.3382 4.25462 98.1918 4.11891Z" fill="#FCAC10"/>
<path d="M18.565 13.4801C18.3656 13.4801 18.1762 13.6434 18.002 13.9701C17.6991 14.5305 17.3002 15.1085 16.7979 15.6991C16.298 16.2897 15.8158 16.7621 15.3463 17.1165C14.6218 17.6643 13.7887 18.094 12.8471 18.4107C11.9054 18.7298 10.9815 18.8882 10.0853 18.8882C9.77477 18.8882 9.38095 18.8555 8.90383 18.7927V18.7525L8.82809 11.065L8.82304 10.5775L8.90635 0.94491V0.927319C9.20929 0.864492 9.5299 0.831822 9.86818 0.831822C11.3046 0.831822 12.6703 1.14595 13.9629 1.77673C15.2554 2.41002 16.2955 3.26446 17.0831 4.34508C17.3406 4.69942 17.5603 4.87785 17.742 4.87785C17.8506 4.87785 17.9516 4.83764 18.045 4.75471C18.1358 4.67178 18.1813 4.58382 18.1813 4.4833C18.1813 4.11137 17.7243 3.50069 16.8054 2.6563C14.8793 0.884596 12.5946 0 9.95149 0C8.40903 0 6.9726 0.319158 5.64473 0.952449C3.81953 1.84459 2.40583 3.12876 1.40361 4.81C0.467029 6.39071 0 8.07195 0 9.8512C0 11.5953 0.449358 13.2438 1.3506 14.7969C2.43107 16.6691 4.01139 18.0362 6.08399 18.8982C7.37905 19.4435 8.66653 19.715 9.95401 19.715C10.8351 19.715 11.7514 19.5818 12.7057 19.3204C14.2936 18.8856 15.6745 18.1091 16.8484 16.9908C17.3911 16.4731 17.8884 15.8876 18.3428 15.2392C18.7972 14.5908 19.0245 14.1284 19.0245 13.857C19.0194 13.6057 18.8705 13.4801 18.565 13.4801Z" fill="#FCAC10"/>
<path d="M8.90357 18.755L8.82279 10.58L8.90357 0.949964V0.932373C4.38223 1.44252 0.868164 5.23725 0.868164 9.85625C0.868164 14.4727 4.38223 18.275 8.90357 18.7877V18.755Z" fill="#E5007E"/>
<path d="M115.914 10.306C116.348 9.59227 116.565 8.79563 116.565 7.91354C116.565 6.93094 116.303 6.04634 115.777 5.25221C115.439 4.74457 114.967 4.27715 114.361 3.85495C113.753 3.43024 113.099 3.10606 112.402 2.88491C111.743 2.68135 111.107 2.55319 110.486 2.4979C109.865 2.44512 108.729 2.41748 107.081 2.41748H100.477L100.502 6.41576L100.55 11.5173L100.514 16.2016L100.489 18.5815L100.479 19.157H106.576C108.376 19.157 109.772 19.1318 110.764 19.0816C112.561 19.0012 113.909 18.4684 114.805 17.4883C115.538 16.6942 115.901 15.8297 115.901 14.8898C115.901 14.3093 115.755 13.7665 115.462 13.2638C115.172 12.7612 114.73 12.2963 114.139 11.8716C114.886 11.5399 115.48 11.0172 115.914 10.306ZM112.44 11.4218C111.774 11.4218 111.158 11.2785 110.592 10.992C110.42 10.9091 110.282 10.8689 110.186 10.8689C110.054 10.8689 109.989 10.9619 109.989 11.1504C109.989 11.4947 110.188 11.7711 110.585 11.9847C110.983 12.1983 111.506 12.3039 112.155 12.3039C112.458 12.3039 112.788 12.2662 113.142 12.1933C113.791 12.5527 114.278 12.9547 114.601 13.3996C114.924 13.8444 115.088 14.3344 115.088 14.8647C115.088 15.9126 114.619 16.7796 113.682 17.4657C113.23 17.7924 112.665 18.0236 111.983 18.1568C111.302 18.29 110.35 18.3603 109.125 18.3603L108.015 18.3478L107.941 10.5849L108.015 3.22669H108.694C110.049 3.22669 111.175 3.36239 112.074 3.63129C112.973 3.9027 113.745 4.33746 114.397 4.94311C115.308 5.77744 115.762 6.78015 115.762 7.94873C115.762 8.71772 115.565 9.39876 115.172 9.99687C114.558 10.9493 113.647 11.4218 112.44 11.4218Z" fill="#FCAC10"/>
<path d="M130.384 5.8077C130.084 5.60917 129.705 5.51367 129.245 5.51367C128.493 5.51367 127.688 5.81273 126.837 6.40832C126.469 6.66968 125.812 7.29794 124.868 8.29563V5.77H118.552L118.567 6.4812L118.625 11.4847L118.58 15.9881L118.567 18.4886L118.552 19.1646H124.883L124.835 14.2843L124.86 9.57478C125.542 8.64243 126.153 7.97647 126.706 7.57689C127.254 7.1748 127.824 6.97627 128.412 6.97627C128.65 6.97627 128.948 7.06172 129.311 7.23261C129.526 7.33062 129.715 7.38088 129.889 7.38088C130.162 7.38088 130.386 7.30297 130.566 7.14716C130.745 6.99135 130.836 6.79533 130.836 6.55659C130.831 6.25 130.684 6.00121 130.384 5.8077Z" fill="#FCAC10"/>
<path d="M146.909 19.1621C146.606 18.6368 146.412 18.1518 146.324 17.6944C146.238 17.2421 146.21 16.5661 146.243 15.6664V10.7961C146.243 9.53955 146.16 8.65998 145.998 8.15988C145.834 7.66229 145.48 7.21245 144.938 6.81036C143.691 5.89561 141.545 5.43823 138.508 5.43823C136.66 5.43823 135.153 5.7021 133.987 6.22482C132.762 6.77267 132.149 7.30292 132.149 7.8181C132.149 7.98899 132.219 8.14229 132.358 8.27297C132.5 8.40364 132.664 8.46898 132.853 8.46898C133.108 8.46898 133.421 8.25537 133.79 7.83067C134.703 6.78272 135.999 6.26252 137.677 6.26252C138.763 6.26252 139.452 6.49121 139.747 6.94858C139.871 7.13706 139.947 7.35067 139.97 7.58439C139.995 7.82313 140.01 8.45893 140.017 9.49934V10.9946C139.318 10.6579 138.697 10.4267 138.157 10.301C137.614 10.1754 136.988 10.11 136.281 10.11C134.555 10.11 133.108 10.59 131.939 11.545C130.937 12.3542 130.435 13.4172 130.435 14.734C130.435 16.2243 131.056 17.4331 132.295 18.3654C133.249 19.0766 134.337 19.431 135.559 19.431C136.284 19.431 137.016 19.3003 137.758 19.0389C138.503 18.7776 139.253 18.3905 140.007 17.8754V19.1621H146.909ZM139.997 16.8928C139.611 17.2597 139.184 17.5562 138.722 17.7799C138.258 18.006 137.839 18.1166 137.46 18.1166C136.983 18.1166 136.705 17.9281 136.622 17.5537C136.589 17.413 136.569 17.0209 136.559 16.3751V13.4448C136.559 12.4622 136.599 11.8717 136.683 11.6656C136.832 11.2912 137.145 11.1027 137.619 11.1027C138.185 11.1027 138.985 11.359 140.02 11.8742L139.997 16.8928Z" fill="#FCAC10"/>
<path d="M159.105 19.1619H165.363L165.325 16.3045L165.351 10.625C165.351 9.28556 165.245 8.31803 165.038 7.72494C164.828 7.13186 164.419 6.63428 163.811 6.2347C163.005 5.70193 162.018 5.43555 160.852 5.43555C159.981 5.43555 159.087 5.60643 158.166 5.9457C157.247 6.28496 156.305 6.79511 155.346 7.47113V5.76727H149.04L149.078 8.4286L149.116 11.1754L149.078 14.3519L149.04 19.1594H155.336L155.323 18.6316L155.288 15.0279L155.313 12.3917L155.339 8.94629L155.349 8.44368C155.891 7.98379 156.396 7.64201 156.866 7.41081C157.335 7.18212 157.77 7.06652 158.171 7.06652C158.608 7.06652 158.891 7.19971 159.022 7.46107C159.087 7.59175 159.128 7.74002 159.138 7.9084C159.151 8.07677 159.161 8.59698 159.171 9.47152L159.181 13.2486L159.151 15.7517L159.105 19.1619Z" fill="#FCAC10"/>
<path d="M184.004 8.41608L184.029 2.41992H177.723L177.771 7.05652C177.148 6.51621 176.501 6.11161 175.832 5.84271C175.164 5.57381 174.472 5.43811 173.757 5.43811C172.147 5.43811 170.698 6.02365 169.408 7.19222C167.954 8.50907 167.227 10.223 167.227 12.3314C167.227 14.5077 167.979 16.2996 169.481 17.7144C170.695 18.8604 172.084 19.4308 173.646 19.4308C174.442 19.4308 175.156 19.2901 175.782 19.0011C176.411 18.7146 177.059 18.2371 177.736 17.5661V19.1619H184.029V18.6091L183.992 12.6606L184.004 8.41608ZM177.769 16.4252C177.047 17.1867 176.456 17.7194 175.997 18.026C175.535 18.3326 175.1 18.4859 174.689 18.4859C174.313 18.4859 174.073 18.31 173.974 17.9607C173.927 17.7973 173.896 17.3852 173.889 16.7217V8.47891L173.876 7.9386C173.876 7.31788 173.932 6.89317 174.043 6.66951C174.154 6.44333 174.366 6.33276 174.679 6.33276C175.073 6.33276 175.527 6.476 176.04 6.76249C176.552 7.04898 177.128 7.48374 177.769 8.06425V16.4252Z" fill="#FCAC10"/>
<path d="M196.349 13.1759C196.094 12.7738 195.829 12.4194 195.554 12.1154C195.278 11.8088 194.632 11.1604 193.612 10.1703C192.57 9.15749 191.878 8.43624 191.537 8.01405C191.196 7.58934 191.025 7.235 191.025 6.95856C191.025 6.72233 191.116 6.54642 191.302 6.43333C191.489 6.31773 191.759 6.26245 192.12 6.26245C193.148 6.26245 194.097 6.57155 194.965 7.19479C195.392 7.49636 195.685 7.64714 195.841 7.64714C195.973 7.64714 196.089 7.59939 196.192 7.49887C196.296 7.40086 196.349 7.2928 196.349 7.16966C196.349 6.77762 195.91 6.41323 195.029 6.07899C193.905 5.65428 192.835 5.44067 191.825 5.44067C190.454 5.44067 189.237 5.76989 188.18 6.42328C187.538 6.81532 187.041 7.2928 186.683 7.85321C186.327 8.41362 186.147 8.99917 186.147 9.61235C186.147 10.316 186.407 11.0498 186.93 11.8138C187.45 12.5778 188.594 13.8996 190.361 15.7819C191.085 16.5585 191.55 17.0837 191.759 17.3601C191.969 17.6366 192.075 17.8728 192.075 18.0713C192.075 18.2698 191.999 18.4181 191.845 18.5212C191.694 18.6242 191.467 18.677 191.164 18.677C190.505 18.677 189.798 18.5387 189.043 18.2623C188.288 17.9859 187.705 17.6567 187.294 17.2671C187.039 17.0209 186.829 16.8977 186.665 16.8977C186.344 16.9053 186.183 17.0611 186.183 17.3651C186.183 17.5285 186.251 17.6793 186.387 17.8175C186.521 17.9557 186.776 18.1367 187.145 18.3578C188.399 19.0791 189.841 19.4359 191.469 19.4359C192.931 19.4359 194.163 19.1142 195.165 18.4684C196.387 17.6918 197 16.6741 197 15.415C197 14.6058 196.783 13.8645 196.349 13.1759Z" fill="#FCAC10"/>
<path d="M108.02 3.22922C107.717 3.22671 107.424 3.23173 107.073 3.23173H100.479L100.505 6.41829L100.553 11.5198L100.517 16.2041L100.492 17.8376V18.3654L106.581 18.3604C106.839 18.3604 108.02 18.3503 108.02 18.3503V17.6039L107.947 10.5875L108.02 3.22922Z" fill="#E5007E"/>
<path d="M107.295 36.0073L104.455 33.0243L107.295 30.0413L108.701 31.3656L107.123 33.0243L108.701 34.6829L107.295 36.0073Z" fill="#FCAC10"/>
<path d="M89.6239 36.0073L88.2178 34.6829L89.7956 33.0243L88.2178 31.3656L89.6239 30.0413L92.4639 33.0243L89.6239 36.0073Z" fill="#FCAC10"/>
<path d="M98.4593 38.0001C95.6142 38.0001 93.3018 35.6956 93.3018 32.8659C93.3018 30.0362 95.6167 27.7317 98.4593 27.7317C101.304 27.7317 103.617 30.0362 103.617 32.8659C103.617 35.6956 101.304 38.0001 98.4593 38.0001ZM98.4593 28.1313C95.8363 28.1313 93.7031 30.2548 93.7031 32.8659C93.7031 35.4769 95.8363 37.6005 98.4593 37.6005C101.082 37.6005 103.215 35.4769 103.215 32.8659C103.215 30.2548 101.082 28.1313 98.4593 28.1313Z" fill="#FCAC10"/>
<path d="M98.4593 28.1287C98.2699 28.1287 98.0857 28.1437 97.9014 28.1638V37.5602C98.0857 37.5803 98.2699 37.5954 98.4593 37.5954C101.085 37.5954 103.215 35.4768 103.215 32.8608C103.215 30.2447 101.085 28.1287 98.4593 28.1287Z" fill="#E5007E"/>
<path d="M77.1224 32.6472H5.07129V33.0845H77.1224V32.6472Z" fill="#FCAC10"/>
<path d="M191.928 32.6472H119.796V33.0845H191.928V32.6472Z" fill="#FCAC10"/>
</svg>
