<svg width="31" height="23" viewBox="0 0 31 23" fill="none" xmlns="http://www.w3.org/2000/svg">
<path d="M30.0555 20.2088H19.3226C19.0389 20.2088 18.8086 19.9785 18.8086 19.6948C18.8086 19.411 19.0389 19.1807 19.3226 19.1807H30.0552C30.339 19.1807 30.5692 19.411 30.5692 19.6948C30.5692 19.9785 30.3393 20.2088 30.0555 20.2088Z" fill="black"/>
<path d="M16.743 22.79C15.0364 22.79 13.6475 21.4014 13.6475 19.6948C13.6475 17.9881 15.0361 16.5992 16.743 16.5992C18.45 16.5992 19.8383 17.9881 19.8383 19.6948C19.8383 21.4014 18.4497 22.79 16.743 22.79ZM16.743 17.6273C15.6029 17.6273 14.6755 18.5546 14.6755 19.6948C14.6755 20.8346 15.6029 21.7619 16.743 21.7619C17.8828 21.7619 18.8102 20.8346 18.8102 19.6948C18.8102 18.5546 17.8828 17.6273 16.743 17.6273Z" fill="black"/>
<path d="M14.1606 20.2088H1.08436C0.800262 20.2088 0.570312 19.9785 0.570312 19.6948C0.570312 19.411 0.800262 19.1807 1.08436 19.1807H14.1606C14.4447 19.1807 14.6747 19.411 14.6747 19.6948C14.6747 19.9785 14.4447 20.2088 14.1606 20.2088Z" fill="black"/>
<path d="M30.0564 11.9917H9.54432C9.26022 11.9917 9.03027 11.7617 9.03027 11.4776C9.03027 11.1935 9.26022 10.9636 9.54432 10.9636H30.0561C30.3398 10.9636 30.5701 11.1935 30.5701 11.4776C30.5701 11.7617 30.3402 11.9917 30.0564 11.9917Z" fill="black"/>
<path d="M6.96276 14.5729C5.25614 14.5729 3.86719 13.1843 3.86719 11.4773C3.86719 9.77032 5.25579 8.38171 6.96276 8.38171C8.66973 8.38171 10.0583 9.77032 10.0583 11.4773C10.0583 13.1843 8.66973 14.5729 6.96276 14.5729ZM6.96276 9.41015C5.82261 9.41015 4.89528 10.3375 4.89528 11.4776C4.89528 12.6178 5.82261 13.5451 6.96276 13.5451C8.10291 13.5451 9.03025 12.6178 9.03025 11.4776C9.03025 10.3375 8.10291 9.41015 6.96276 9.41015Z" fill="black"/>
<path d="M4.38144 11.9917H1.08436C0.800262 11.9917 0.570312 11.7617 0.570312 11.4776C0.570312 11.1935 0.800262 10.9636 1.08436 10.9636H4.38144C4.66553 10.9636 4.89548 11.1935 4.89548 11.4776C4.89548 11.7617 4.66519 11.9917 4.38144 11.9917Z" fill="black"/>
<path d="M20.0553 3.77449H1.08436C0.800262 3.77449 0.570312 3.54454 0.570312 3.26044C0.570312 2.97635 0.800262 2.7464 1.08436 2.7464H20.0553C20.3391 2.7464 20.5694 2.97635 20.5694 3.26044C20.5694 3.54454 20.3391 3.77449 20.0553 3.77449Z" fill="black"/>
<path d="M22.6372 6.35566C20.9306 6.35566 19.542 4.96706 19.542 3.26009C19.542 1.55312 20.9306 0.164856 22.6372 0.164856C24.3439 0.164856 25.7328 1.55346 25.7328 3.26043C25.7328 4.9674 24.3442 6.35566 22.6372 6.35566ZM22.6372 1.19294C21.4974 1.19294 20.5701 2.12028 20.5701 3.26043C20.5701 4.40058 21.4974 5.32792 22.6372 5.32792C23.7774 5.32792 24.7047 4.40058 24.7047 3.26043C24.7047 2.12028 23.7774 1.19294 22.6372 1.19294Z" fill="black"/>
<path d="M30.0563 3.77449H25.2181C24.9344 3.77449 24.7041 3.54454 24.7041 3.26044C24.7041 2.97635 24.9344 2.7464 25.2181 2.7464H30.056C30.3397 2.7464 30.57 2.97635 30.57 3.26044C30.57 3.54454 30.3401 3.77449 30.0563 3.77449Z" fill="black"/>
</svg>
